<?xml version="1.0" standalone="no"?>
<!DOCTYPE svg PUBLIC "-//W3C//DTD SVG 20010904//EN"
 "http://www.w3.org/TR/2001/REC-SVG-20010904/DTD/svg10.dtd">
<svg version="1.0" xmlns="http://www.w3.org/2000/svg"
 width="500.000000pt" height="500.000000pt" viewBox="0 0 500.000000 500.000000"
 preserveAspectRatio="xMidYMid meet">
<metadata>
Created by potrace 1.14, written by Peter Selinger 2001-2017
</metadata>
<g transform="translate(0.000000,500.000000) scale(0.100000,-0.100000)"
fill="#000000" stroke="none">
<path d="M2486 4491 c-14 -5 -16 -10 -8 -15 9 -5 8 -13 -3 -29 -19 -28 -20
-61 -1 -54 15 6 26 -13 26 -41 -1 -15 -3 -14 -15 2 -14 18 -15 17 -16 -25 -1
-37 -2 -40 -9 -19 -8 24 -8 24 -9 2 -1 -23 -42 -47 -65 -39 -6 3 -19 -6 -29
-19 l-18 -24 32 4 c21 2 36 10 40 22 4 10 8 15 8 10 1 -5 9 -2 18 5 15 13 16
11 10 -11 -4 -14 -7 -29 -7 -34 0 -4 -7 -5 -16 -2 -14 5 -15 4 -4 -9 10 -12 9
-15 -6 -15 -17 0 -17 -1 2 -14 18 -14 17 -14 -10 -11 -17 1 -36 -4 -44 -11 -7
-8 -31 -14 -52 -14 -21 0 -42 -4 -45 -10 -4 -6 1 -7 11 -3 12 4 15 3 10 -5 -4
-7 -2 -12 4 -12 6 0 8 -4 5 -10 -7 -12 9 -13 54 -4 20 4 30 12 27 19 -5 13 42
40 52 30 10 -9 -17 -53 -39 -65 -15 -8 -19 -9 -15 -1 11 18 -10 13 -25 -6 -10
-11 -10 -14 -1 -9 15 9 15 1 2 -25 -6 -11 -21 -19 -35 -19 -14 0 -25 -4 -25
-10 0 -5 7 -10 15 -10 23 0 18 -19 -7 -30 -23 -9 -23 -9 -2 -9 12 -1 34 -7 48
-15 l27 -14 -30 -13 c-16 -7 -27 -17 -25 -21 3 -4 -8 -14 -23 -22 -15 -8 -24
-15 -20 -16 13 0 47 20 69 42 35 35 33 9 -3 -29 -30 -31 -31 -35 -11 -30 25 6
29 -5 8 -22 -15 -13 -49 -4 -40 10 3 5 -2 6 -10 3 -23 -9 -20 -24 5 -24 11 0
17 -4 14 -10 -3 -5 2 -10 12 -10 14 -1 11 -7 -14 -30 -44 -40 -42 -49 3 -15
49 37 57 22 11 -20 -36 -33 -66 -47 -52 -25 3 6 1 10 -4 10 -16 0 -13 -15 4
-30 11 -9 22 -6 55 21 22 18 43 29 47 25 5 -4 -1 -15 -12 -23 -18 -14 -18 -15
-2 -9 12 4 17 2 15 -6 -3 -7 -15 -15 -29 -18 -17 -4 -20 -8 -11 -14 11 -6 10
-12 -5 -28 -10 -11 -27 -24 -38 -29 -15 -7 -11 -8 15 -4 l35 5 -25 -20 c-14
-11 -20 -20 -14 -20 6 0 23 9 37 20 14 11 30 20 35 20 17 0 22 -29 10 -56 -11
-24 -16 -26 -60 -21 -41 5 -49 3 -59 -14 -6 -12 -8 -23 -5 -26 3 -4 -3 -13
-15 -21 -18 -12 -23 -12 -42 5 -44 37 -49 44 -43 58 3 8 1 15 -3 15 -5 0 -12
-6 -14 -12 -3 -7 -6 -4 -7 7 -1 18 -1 19 -11 2 -12 -20 -3 -40 14 -31 7 4 3
-2 -8 -13 -22 -22 -45 -14 -45 15 0 13 2 13 13 -2 12 -16 13 -14 14 18 1 25
-3 36 -13 36 -8 0 -14 5 -14 11 0 5 6 7 13 4 6 -4 5 -1 -3 7 -8 7 -14 23 -12
34 2 13 -4 24 -13 28 -13 5 -14 2 -4 -17 11 -20 11 -21 -4 -8 -18 14 -24 57
-7 46 6 -4 10 5 10 20 0 14 -4 24 -8 21 -5 -3 -4 10 2 29 6 19 16 35 21 35 16
0 35 -22 34 -39 0 -11 -2 -12 -6 -3 -11 28 -33 12 -33 -25 0 -32 2 -35 13 -19
7 9 19 16 27 14 9 -2 14 4 14 14 -1 10 2 15 7 12 5 -3 9 -11 9 -18 0 -15 68
-51 77 -42 3 3 -6 8 -21 12 -25 6 -37 24 -16 24 6 0 10 5 10 12 0 9 -3 9 -12
0 -17 -17 -29 -15 -22 3 4 8 1 15 -5 15 -6 0 -16 12 -22 27 -7 19 -13 24 -18
15 -11 -18 -33 10 -25 32 3 9 2 16 -4 16 -9 0 -17 26 -28 100 -6 33 -5 34 9
15 8 -10 13 -25 10 -31 -2 -7 7 -31 22 -53 14 -23 23 -46 19 -52 -4 -7 6 -9
27 -7 23 2 35 9 37 20 3 13 -1 16 -14 11 -11 -4 -23 2 -35 18 -20 25 -24 40
-11 38 26 -4 33 2 18 16 -8 8 -19 15 -24 15 -19 0 -31 27 -33 73 -2 27 -6 50
-11 53 -4 3 -5 16 -2 30 5 20 3 23 -12 17 -11 -4 -13 -8 -6 -11 9 -3 8 -9 -3
-25 -19 -27 -19 -41 0 -33 12 4 15 -2 14 -27 -1 -30 -1 -31 -9 -7 l-8 25 -1
-28 c-1 -16 -5 -26 -11 -22 -5 3 -10 2 -10 -4 0 -5 6 -12 13 -14 6 -3 2 -6
-10 -6 -13 -1 -23 -5 -23 -10 0 -5 -8 -7 -19 -4 -29 7 -33 -11 -5 -24 13 -6
22 -8 19 -3 -3 4 3 14 12 21 15 13 16 11 9 -16 -9 -35 -25 -57 -36 -50 -5 3
-11 1 -15 -5 -3 -5 -21 -10 -38 -10 -24 0 -28 -3 -17 -10 10 -6 11 -10 3 -10
-7 0 -13 -5 -13 -11 0 -16 62 -2 73 16 8 16 37 21 37 7 0 -4 -9 -15 -20 -25
-11 -9 -20 -14 -20 -11 0 4 -6 1 -14 -6 -8 -6 -13 -17 -10 -24 6 -15 -22 -30
-37 -20 -5 3 -9 0 -9 -5 0 -6 5 -11 10 -11 18 0 11 -20 -7 -21 -12 -1 -9 -4 7
-9 17 -5 29 -3 36 6 18 22 25 3 9 -23 -15 -22 -15 -23 17 -19 22 2 34 10 41
27 6 16 11 19 14 11 3 -8 -4 -27 -16 -43 -11 -15 -21 -32 -21 -36 0 -4 -7 -17
-16 -28 -10 -14 -17 -16 -22 -8 -5 8 -12 8 -26 -3 -20 -14 -20 -14 0 -14 17
-1 15 -4 -9 -25 -15 -14 -25 -25 -21 -25 4 0 16 7 26 17 10 9 21 13 24 10 4
-3 -9 -20 -27 -36 -37 -35 -31 -42 8 -11 33 26 43 25 38 -1 -2 -12 0 -29 5
-39 6 -12 5 -17 -6 -17 -8 0 -13 6 -10 14 3 7 -1 13 -10 13 -8 0 -13 -4 -9 -9
7 -13 -24 -43 -37 -35 -7 4 -8 2 -4 -4 4 -6 14 -9 24 -6 14 5 14 3 -2 -10 -26
-21 -11 -20 25 1 26 15 31 16 39 3 7 -11 11 -9 18 10 5 14 17 42 26 64 19 45
20 60 5 50 -7 -4 -9 0 -6 12 3 11 8 32 12 48 6 27 7 28 23 12 13 -13 14 -20 6
-34 -7 -10 -15 -41 -19 -70 -4 -29 -13 -55 -19 -60 -7 -4 -18 -20 -23 -37 -6
-16 -16 -29 -22 -27 -7 1 -9 -2 -5 -9 5 -9 -6 -10 -42 -5 -47 7 -48 7 -26 -9
12 -9 20 -20 17 -25 -10 -16 39 -7 60 10 33 28 52 33 23 7 -18 -17 -23 -27
-15 -30 9 -3 8 -9 -4 -22 -13 -13 -18 -14 -24 -4 -5 7 -4 10 3 5 6 -3 13 -2
17 4 11 19 -20 10 -38 -10 -17 -20 -11 -25 22 -20 13 1 13 -1 2 -14 -9 -10
-22 -14 -37 -10 -17 4 -24 2 -24 -8 0 -8 -11 -21 -25 -28 -42 -23 -17 -29 37
-9 28 10 54 17 56 14 2 -2 -9 -16 -24 -30 l-29 -27 29 21 c16 12 31 20 33 18
7 -8 -30 -68 -49 -78 -11 -6 -17 -13 -15 -16 3 -2 15 1 27 7 20 11 21 10 11
-9 -10 -17 -9 -20 4 -15 9 4 15 1 15 -7 0 -7 10 -3 25 11 14 13 25 19 25 12 0
-6 -17 -24 -37 -41 -30 -25 -33 -31 -18 -31 11 0 30 12 42 28 l24 27 -21 -37
c-11 -21 -17 -38 -13 -38 4 0 -4 -12 -18 -27 -16 -19 -18 -23 -4 -12 11 9 27
20 35 24 13 8 13 7 1 -8 -7 -9 -10 -17 -7 -17 4 0 2 -9 -4 -20 -6 -11 -16 -20
-22 -20 -7 0 -7 5 1 14 11 12 7 13 -26 3 -47 -13 -47 -13 -38 -26 4 -8 12 -8
25 -1 28 15 37 -8 11 -26 -12 -9 -19 -20 -15 -25 4 -6 11 -5 21 2 12 10 16 10
23 -1 12 -20 40 5 33 29 -3 10 1 22 7 26 10 6 11 -17 6 -101 -4 -60 -9 -116
-12 -126 -3 -12 4 -18 25 -23 68 -15 86 10 82 117 -2 58 1 67 18 73 13 4 18
12 15 23 -5 14 -3 13 10 -2 9 -11 16 -25 16 -30 0 -6 5 -3 11 7 10 18 11 18
24 0 7 -10 17 -15 21 -10 4 4 2 7 -6 7 -10 0 -10 3 0 15 10 12 10 15 -2 15 -8
0 -28 11 -43 24 l-29 25 35 -12 c18 -7 40 -16 47 -21 19 -12 27 1 12 19 -7 9
-19 14 -26 11 -7 -3 -18 2 -24 10 -10 11 -8 14 11 15 30 2 30 2 54 -6 19 -6
19 -6 2 5 -16 10 -33 16 -58 19 -3 1 -6 8 -6 16 0 8 5 11 10 8 7 -4 8 1 3 12
-5 15 -4 16 8 6 18 -16 84 16 115 55 12 15 27 24 35 21 8 -3 27 10 46 34 18
22 35 38 38 35 3 -3 -2 -14 -11 -24 -10 -10 -17 -22 -17 -27 0 -5 -8 -17 -17
-28 -10 -11 -12 -17 -5 -13 7 4 12 2 12 -6 0 -7 11 1 24 17 13 17 27 27 31 24
9 -9 -42 -62 -53 -55 -12 7 -56 -40 -48 -52 6 -10 -35 -32 -59 -32 -17 0 -20
-17 -5 -22 6 -2 -1 -15 -15 -30 -21 -23 -22 -27 -6 -25 10 0 18 8 17 16 -1 8
15 25 34 37 47 31 83 68 70 72 -11 4 -3 22 10 22 12 0 5 -47 -10 -65 -7 -8
-19 -15 -26 -15 -7 0 -11 -6 -8 -14 5 -14 -32 -43 -49 -38 -4 1 -3 -7 3 -19
11 -19 13 -19 29 -5 24 22 41 20 41 -5 0 -19 1 -19 17 -3 10 9 17 30 18 47 0
17 6 32 13 35 11 3 12 -22 6 -139 -3 -79 -10 -151 -14 -159 -6 -10 1 -20 21
-32 27 -17 32 -17 67 -1 34 14 38 20 35 47 -2 29 -2 29 6 6 12 -34 14 -22 11
93 -1 74 2 97 12 97 23 0 39 16 32 33 -8 22 -21 22 -27 0 -4 -14 -5 -13 -6 4
0 12 -5 25 -11 28 -5 3 -10 16 -10 28 l0 21 16 -22 c8 -12 21 -22 28 -22 13 0
46 -56 46 -78 0 -5 7 -16 17 -23 15 -13 15 -12 4 9 -8 15 -8 22 -1 22 6 0 8 5
5 10 -3 6 -1 10 4 10 6 0 11 -7 11 -16 0 -14 7 -16 40 -11 23 3 40 1 40 -5 0
-5 5 -6 10 -3 6 3 10 17 10 31 0 18 5 24 21 24 11 0 18 4 15 8 -3 5 6 32 20
62 25 53 35 56 49 13 4 -17 2 -23 -8 -23 -10 0 -14 -7 -10 -22 4 -21 3 -21 -7
-5 -11 18 -12 18 -25 1 -7 -10 -11 -24 -8 -31 3 -7 -2 -13 -11 -13 -9 0 -16
-7 -16 -15 0 -8 7 -15 15 -15 12 0 15 -14 15 -70 0 -38 5 -80 11 -94 13 -28
58 -43 87 -27 16 9 18 17 11 83 -15 134 -14 172 2 163 6 -4 8 -14 5 -22 -9
-22 14 -49 25 -31 7 10 12 11 28 1 27 -17 35 0 11 22 -11 10 -24 14 -32 9 -10
-6 -10 -4 1 9 9 12 10 17 2 17 -11 0 -41 57 -41 76 0 4 11 -3 25 -16 14 -13
25 -18 25 -12 0 6 -9 16 -20 22 -11 6 -19 14 -16 18 2 4 -2 18 -10 32 -8 15
-13 19 -14 10 0 -13 -2 -13 -9 0 -19 29 3 32 28 3 26 -30 61 -50 61 -34 0 5
-11 16 -25 25 -13 9 -30 26 -36 38 -11 22 -11 22 16 -2 23 -20 27 -21 21 -6
-5 14 -3 17 10 12 12 -4 15 -2 10 9 -4 13 -2 14 14 5 11 -6 20 -7 20 -1 0 5
-7 11 -15 14 -8 4 -21 22 -29 42 -8 19 -20 35 -27 35 -6 0 -9 7 -6 15 4 8 -5
23 -20 35 -33 26 -46 25 -38 -2 6 -22 6 -22 -9 -4 -15 19 -16 19 -16 -6 0 -15
-4 -29 -9 -32 -4 -3 -7 -21 -4 -40 2 -19 -1 -37 -6 -41 -13 -8 -2 -35 14 -35
7 0 16 -7 19 -16 11 -28 7 -37 -11 -23 -14 12 -16 12 -8 0 6 -11 4 -13 -7 -8
-11 4 -20 -3 -28 -23 -8 -19 -17 -27 -26 -23 -8 3 -14 1 -12 -5 3 -9 -2 -12
-16 -12 -3 0 0 13 5 30 6 16 15 27 20 24 5 -3 9 -1 9 5 0 5 9 13 21 16 16 5
19 12 14 28 -4 12 -7 30 -6 40 0 14 -3 15 -13 4 -7 -7 -16 -19 -19 -27 -4 -9
-6 -5 -4 10 1 13 11 29 22 35 22 11 31 35 15 35 -7 0 -10 20 -9 49 2 28 6 48
10 46 4 -3 12 2 19 10 7 8 19 15 26 15 11 0 14 11 12 39 -2 29 -6 37 -15 29
-7 -5 -17 -7 -23 -3 -15 9 -12 41 5 55 8 7 12 17 9 22 -4 6 -10 5 -16 -3 -7
-11 -8 -9 -6 5 2 13 13 20 33 22 23 3 25 1 11 -5 -13 -5 -16 -10 -8 -15 6 -3
9 -13 5 -21 -3 -9 0 -22 7 -30 6 -8 9 -19 5 -25 -4 -6 0 -21 8 -33 8 -12 15
-26 16 -32 1 -5 9 -17 17 -26 8 -9 11 -18 8 -22 -3 -3 3 -11 14 -18 11 -7 18
-18 16 -24 -3 -6 7 -22 21 -35 14 -13 25 -20 25 -16 0 4 -10 16 -22 26 -32 25
-18 33 25 15 55 -23 61 -19 30 20 -15 19 -34 35 -41 35 -7 0 -11 -4 -8 -9 4
-5 -3 -7 -13 -4 -11 3 -22 11 -25 19 -4 11 3 13 32 9 35 -5 35 -5 14 8 -12 7
-19 17 -15 21 4 4 -3 6 -17 4 -19 -2 -25 2 -25 15 0 10 -9 25 -19 33 -11 8
-15 14 -9 14 6 0 22 -9 36 -20 26 -21 57 -27 57 -11 0 5 9 13 20 16 38 12 20
22 -26 15 -46 -7 -46 -7 -61 28 -8 19 -20 41 -28 48 -7 8 -16 35 -20 62 -6 45
-24 93 -25 65 0 -7 -7 -10 -15 -7 -11 4 -15 -1 -15 -17 0 -31 -15 -55 -24 -40
-4 6 -2 11 3 11 14 0 14 27 1 35 -6 3 -7 -1 -4 -9 3 -9 1 -16 -5 -16 -6 0 -10
13 -9 31 2 28 5 30 30 25 20 -4 33 0 49 17 l21 22 -6 -25 c-3 -14 -3 -19 0
-12 10 21 27 13 21 -10 -4 -12 -1 -29 6 -37 9 -12 9 -13 0 -7 -20 11 -16 -25
8 -79 24 -53 33 -51 38 9 1 5 8 3 16 -4 13 -11 13 -15 3 -21 -10 -6 -8 -12 7
-23 11 -9 27 -15 35 -15 8 0 5 4 -7 9 -32 13 -29 22 5 15 22 -4 23 -4 7 4 -12
5 -27 16 -34 25 -11 13 -11 16 0 17 8 0 5 4 -6 8 -11 5 -25 4 -32 -1 -10 -8
-13 -4 -12 13 0 13 3 19 5 12 3 -7 11 -10 19 -7 10 4 7 16 -12 50 -31 55 -22
58 13 4 33 -49 65 -72 85 -58 11 8 11 9 -2 5 -10 -3 -27 6 -43 22 -28 29 -36
52 -11 31 18 -15 20 1 3 19 -11 10 -10 11 5 6 9 -4 17 -3 17 3 0 5 -9 12 -20
15 -11 3 -20 1 -20 -4 0 -18 -17 -8 -28 16 -6 14 -8 25 -3 25 5 0 11 -6 14
-14 4 -9 14 -12 26 -9 12 3 27 1 34 -3 7 -5 -2 4 -20 19 -38 34 -43 51 -10 42
21 -6 21 -5 2 6 -24 15 -35 30 -29 41 3 4 0 8 -7 8 -7 0 -10 2 -7 5 8 8 39 -6
33 -15 -2 -4 9 -7 26 -8 16 0 27 4 24 9 -4 5 -14 9 -23 9 -14 1 -14 2 3 12 19
12 19 12 -5 18 -16 4 -24 13 -23 24 0 10 -10 22 -25 29 -27 12 -42 25 -42 40
0 13 19 7 37 -12 21 -21 73 -37 73 -21 0 5 -6 10 -12 11 -7 0 -4 4 7 9 17 7
15 9 -12 9 -17 1 -39 8 -47 17 -10 9 -16 11 -16 4 0 -7 -6 -5 -16 4 -8 9 -12
20 -9 26 3 5 1 10 -4 10 -6 0 -11 18 -11 41 0 24 -4 38 -10 34 -6 -3 -10 4
-11 17 0 22 -1 22 -9 3 -8 -17 -9 -16 -9 9 -1 22 3 27 15 22 13 -5 15 -2 9 16
-4 13 -7 31 -8 41 -1 9 -7 17 -14 17 -9 0 -11 -8 -7 -25 3 -14 2 -31 -4 -38
-6 -7 -13 -32 -16 -57 -2 -25 -5 -46 -5 -47 -1 -2 -6 -3 -12 -3 -6 0 -23 -10
-37 -21 l-27 -22 28 5 c16 3 27 1 27 -6 -1 -20 -27 -46 -47 -46 -11 0 -20 -7
-20 -15 0 -19 28 -29 38 -13 4 7 11 9 15 5 7 -7 56 77 52 90 -5 20 14 52 28
46 11 -4 12 -9 3 -19 -9 -11 -8 -18 2 -31 10 -11 10 -14 2 -9 -9 5 -13 0 -13
-16 0 -16 -3 -19 -9 -10 -5 9 -10 1 -14 -25 -9 -53 -9 -65 3 -58 6 3 10 -5 10
-19 0 -14 5 -28 10 -31 6 -3 10 -12 10 -18 0 -7 -4 -6 -10 3 -7 11 -10 7 -10
-18 0 -18 -4 -40 -9 -50 -5 -9 -12 -25 -15 -34 -8 -25 -40 -24 -33 1 3 13 1
18 -9 14 -7 -2 -10 -11 -7 -19 3 -8 0 -14 -6 -14 -6 0 -11 6 -11 13 0 8 -3 7
-10 -3 -5 -9 -5 -17 1 -20 29 -19 -30 -120 -73 -125 -13 -2 -30 -6 -39 -10 -9
-3 -21 1 -29 10 -11 13 -9 15 11 15 21 1 19 3 -11 16 -25 11 -40 12 -51 5 -13
-7 -21 -5 -31 7 -25 29 -30 42 -14 36 8 -3 17 -12 20 -20 7 -19 26 -18 26 1 0
8 -4 15 -10 15 -5 0 -10 7 -10 15 0 14 3 13 25 -1 21 -14 28 -14 42 -3 12 10
15 10 9 1 -4 -7 -1 -15 8 -18 9 -3 16 -13 16 -20 0 -20 27 -29 45 -14 8 7 15
9 15 6 0 -4 7 0 16 9 21 21 12 30 -15 15 -12 -6 -25 -8 -30 -5 -5 3 -12 -1
-14 -7 -3 -7 -6 -4 -6 7 -1 28 -20 45 -50 45 -15 0 -32 4 -40 9 -16 10 -42 -8
-33 -23 3 -5 0 -6 -6 -2 -6 4 -9 13 -5 21 3 8 1 15 -5 15 -5 0 -13 7 -16 16
-5 13 1 14 38 9 39 -6 46 -4 75 24 17 17 31 32 31 33 0 2 -12 3 -27 2 -18 0
-35 9 -55 31 -15 18 -28 35 -28 39 0 15 48 0 113 -35 9 -5 17 -6 17 -2 -1 26
-51 56 -91 55 -20 0 -29 5 -33 21 -13 50 2 66 22 22 7 -16 20 -25 34 -25 21 0
20 2 -10 26 -19 15 -38 36 -42 48 -7 17 -9 18 -9 4 -1 -20 -16 -24 -27 -7 -3
6 0 15 7 20 12 7 12 9 0 9 -8 0 -24 8 -35 18 -20 17 -20 17 -3 -10 24 -38 21
-50 -9 -46 -21 2 -28 9 -30 32 -2 16 -7 32 -13 35 -6 4 -13 26 -17 49 -3 23
-11 39 -16 36 -5 -4 -3 8 6 24 9 17 16 40 16 52 0 11 4 20 9 20 4 0 6 -11 3
-25 -2 -14 0 -31 6 -38 6 -6 13 -33 17 -59 4 -26 12 -45 17 -42 5 3 18 -2 28
-11 10 -9 27 -15 37 -12 14 4 13 5 -5 6 -13 0 -20 6 -17 11 3 6 -1 13 -9 16
-9 3 -13 11 -9 17 4 6 1 7 -7 2 -13 -8 -30 10 -30 34 0 10 3 11 13 3 7 -6 19
-7 26 -3 8 5 21 0 36 -13 25 -24 85 -49 85 -36 0 5 -17 17 -37 27 -31 15 -37
23 -35 43 4 21 2 22 -12 11 -9 -8 -23 -10 -33 -6 -10 5 -21 7 -25 7 -5 -1 -8
5 -8 14 0 10 -6 14 -15 10 -10 -4 -15 1 -15 16 0 18 2 19 18 7 9 -7 25 -21 35
-31 19 -19 37 -24 37 -9 0 5 -7 14 -15 21 -8 7 -15 19 -15 26 0 8 -4 14 -10
14 -5 0 -10 -5 -10 -12 0 -6 -9 -3 -21 8 -14 12 -18 25 -14 41 3 13 1 23 -5
23 -5 0 -10 12 -10 28 0 21 -2 24 -10 12 -8 -12 -10 -10 -11 10 0 14 -3 46 -5
73 -3 30 -1 47 6 47 6 0 8 -4 5 -10 -3 -5 -2 -10 4 -10 6 0 15 -10 22 -21 6
-12 7 -19 1 -15 -5 3 -16 -2 -23 -11 -8 -9 -9 -14 -3 -10 7 4 21 -11 35 -38
13 -25 27 -45 31 -45 17 0 7 -30 -9 -31 -10 -1 1 -7 25 -14 49 -16 72 -11 72
16 0 14 -7 19 -27 19 -22 0 -25 2 -13 10 13 9 13 10 0 10 -22 0 -36 12 -44 36
-6 18 -3 20 25 16 22 -3 30 -1 25 7 -4 6 -13 11 -21 11 -7 0 -15 7 -19 15 -3
8 -10 15 -16 15 -24 0 -36 27 -35 79 1 33 -4 58 -12 67 -10 9 -12 25 -7 49 3
19 5 35 3 34 -2 0 -13 -4 -23 -8z m-12 -355 c-10 -25 -20 -19 -18 12 2 38 3
39 14 20 6 -9 7 -23 4 -32z m136 -6 c0 -5 -4 -10 -9 -10 -6 0 -13 5 -16 10 -3
6 1 10 9 10 9 0 16 -4 16 -10z m-122 -57 c-10 -40 -30 -70 -23 -37 13 64 16
74 24 74 6 0 5 -16 -1 -37z m-83 -23 c-3 -5 -11 -10 -16 -10 -6 0 -7 5 -4 10
3 6 11 10 16 10 6 0 7 -4 4 -10z m-15 -40 c0 -5 -5 -10 -11 -10 -5 0 -7 5 -4
10 3 6 8 10 11 10 2 0 4 -4 4 -10z m-20 -37 c-12 -8 -24 -12 -28 -8 -4 4 -1
10 6 12 6 3 10 8 7 13 -3 4 4 6 15 3 21 -6 21 -6 0 -20z m90 -7 c0 -8 -11 -27
-24 -42 -22 -26 -25 -27 -40 -12 -9 9 -12 19 -7 22 5 4 11 0 14 -6 2 -8 12 1
23 19 20 35 34 42 34 19z m37 -57 c11 -40 11 -40 -8 -23 -11 10 -19 30 -19 47
0 38 11 28 27 -24z m-97 -36 c-1 -23 -20 -47 -44 -56 -18 -7 -18 -6 -2 15 9
13 19 31 23 41 3 9 9 17 14 17 5 0 9 -8 9 -17z m153 -48 c20 0 37 4 37 8 0 5
5 5 11 1 7 -4 10 -27 7 -61 -3 -29 -1 -56 4 -59 11 -7 10 -34 -2 -34 -5 0 -10
9 -10 21 0 11 -4 18 -9 14 -10 -6 -41 32 -41 50 0 5 4 4 9 -4 17 -26 38 -21
33 7 -5 24 -6 25 -12 7 -7 -18 -8 -17 -15 7 -10 38 -35 25 -35 -18 0 -22 6
-37 15 -40 8 -4 15 -15 15 -26 0 -17 -3 -18 -14 -9 -10 9 -16 9 -21 1 -9 -14
1 -25 23 -25 10 0 18 -9 20 -22 4 -30 -3 -29 -35 3 -22 22 -24 30 -15 45 7 11
8 20 2 24 -6 3 -10 24 -10 46 0 56 -17 40 -25 -24 -7 -50 -33 -126 -34 -99 -1
7 -5 11 -10 8 -5 -3 -1 17 10 44 23 61 24 74 4 66 -16 -6 -21 9 -5 19 5 3 7
19 3 35 -6 34 3 38 24 13 14 -17 14 -17 8 2 -19 53 -17 60 6 30 19 -25 31 -30
62 -30z m-521 -7 c-7 -7 -10 -5 -7 8 5 29 6 30 12 16 3 -8 1 -18 -5 -24z m945
13 c0 -11 -5 -17 -9 -15 -11 7 -10 34 1 34 6 0 9 -9 8 -19z m-556 -4 c-6 -8
-7 -18 -3 -22 4 -5 2 -5 -5 -1 -7 4 -13 -2 -15 -16 -2 -14 -11 -24 -23 -26
-19 -3 -19 -2 -2 11 9 8 17 18 17 22 0 9 30 45 38 45 2 0 -1 -6 -7 -13z m-366
-49 c-4 -18 -12 -37 -17 -43 -7 -7 -8 -2 -3 15 3 14 9 33 11 43 9 30 16 18 9
-15z m914 -26 c1 -7 -3 -10 -9 -7 -5 3 -10 18 -9 33 0 24 1 25 9 7 5 -11 9
-26 9 -33z m-560 -66 c-14 -15 -22 0 -13 26 7 22 7 22 14 3 4 -11 4 -24 -1
-29z m600 -41 c0 -5 -9 1 -19 14 -11 13 -20 28 -20 35 0 6 9 0 20 -14 11 -14
20 -29 19 -35z m-63 -3 c-14 -15 -15 -13 -3 17 8 23 13 28 15 16 2 -10 -3 -25
-12 -33z m-566 -16 c-7 -7 -10 -6 -10 3 0 8 -6 11 -15 7 -13 -4 -12 -1 2 20
l17 26 8 -23 c5 -13 5 -26 -2 -33z m254 25 c3 -5 -3 -11 -13 -14 -14 -3 -18
-1 -14 9 6 16 19 18 27 5z m-108 -26 c8 -8 18 -38 21 -67 6 -51 6 -52 -13 -38
-10 8 -22 19 -25 24 -8 11 -18 -33 -21 -96 -2 -25 -6 -44 -10 -42 -13 8 -63
-48 -60 -66 2 -13 -3 -18 -15 -17 -18 1 -87 -43 -79 -51 3 -2 22 9 43 24 31
23 34 24 19 6 -11 -13 -20 -32 -21 -43 -2 -20 -8 -26 -45 -49 -8 -4 -12 -11
-8 -15 9 -9 90 44 83 55 -3 4 8 19 24 32 16 13 34 34 41 46 6 13 14 21 17 19
8 -8 -18 -50 -43 -70 -13 -10 -21 -23 -19 -30 7 -17 -7 -34 -29 -38 -11 -2
-27 -17 -36 -34 -9 -16 -24 -30 -33 -30 -8 0 -19 -4 -23 -8 -10 -10 -26 -9
-20 2 3 5 -6 11 -19 14 -25 4 -45 -8 -24 -15 6 -2 1 -14 -12 -28 -17 -20 -21
-21 -15 -6 4 12 2 23 -6 28 -10 6 -10 8 1 8 11 0 10 4 -5 16 -10 8 -13 13 -6
9 6 -3 12 -2 12 3 0 5 -9 12 -21 15 -32 9 -13 27 29 28 20 0 46 4 57 9 18 7
18 8 3 14 -52 18 -54 19 -28 24 27 4 53 22 32 22 -27 0 -9 20 26 29 66 18 164
91 122 91 -5 0 -10 -5 -10 -12 0 -6 -3 -8 -7 -4 -5 4 6 20 22 34 17 15 25 23
18 18 -8 -5 -13 -4 -13 2 0 6 5 14 10 17 6 3 10 11 10 16 0 6 -5 7 -12 3 -7
-4 -8 -3 -4 5 4 6 11 9 16 6 5 -3 16 8 25 24 17 34 18 42 8 40 -23 -4 -24 4
-3 25 12 14 20 32 17 40 -5 13 0 26 10 26 3 0 11 -7 19 -15z m-106 -39 c-6
-19 -18 -40 -26 -46 -12 -11 -12 -7 1 21 9 19 18 42 22 52 3 10 8 16 10 13 3
-3 0 -20 -7 -40z m70 24 c0 -6 -8 -14 -17 -17 -10 -4 -22 -12 -26 -20 -14 -23
-29 -15 -16 10 18 34 59 53 59 27z m80 -26 c0 -8 -4 -12 -10 -9 -5 3 -10 10
-10 16 0 5 5 9 10 9 6 0 10 -7 10 -16z m-590 -39 c-7 -9 -15 -13 -17 -11 -6 6
20 36 26 30 2 -2 -2 -10 -9 -19z m439 -44 c-19 -22 -45 -44 -59 -49 -20 -9
-21 -11 -6 -11 26 -1 16 -10 -31 -27 l-38 -15 40 6 c22 3 48 9 58 11 18 6 18
5 2 -20 -10 -14 -23 -26 -30 -26 -7 0 -16 -6 -18 -12 -4 -10 -6 -10 -6 -1 -1
6 4 15 9 18 6 3 10 11 10 18 0 8 -3 8 -12 -1 -7 -7 -20 -12 -30 -12 -11 0 -18
-7 -18 -20 0 -27 -31 -23 -45 5 -6 11 -24 22 -39 25 -36 6 -47 30 -14 31 13 1
27 1 31 0 5 -1 6 3 2 9 -10 16 21 40 51 40 22 0 25 2 14 15 -10 13 -9 15 8 15
13 0 19 -5 17 -12 -4 -9 5 -13 24 -14 17 -1 32 5 35 12 5 12 63 54 75 54 2 0
-12 -18 -30 -39z m509 11 c-1 -16 -8 -29 -15 -29 -8 0 -11 5 -8 11 3 6 8 19
11 29 9 25 15 21 12 -11z m-628 8 c0 -5 -4 -10 -10 -10 -5 0 -10 5 -10 10 0 6
5 10 10 10 6 0 10 -4 10 -10z m-300 -29 c0 -6 -4 -13 -10 -16 -5 -3 -10 1 -10
9 0 9 5 16 10 16 6 0 10 -4 10 -9z m536 -15 c-7 -27 23 -68 45 -63 8 2 11 2 6
0 -4 -3 -4 -9 -1 -15 4 -6 8 -27 9 -47 1 -23 11 -47 27 -64 24 -26 33 -57 16
-57 -4 0 -8 6 -8 13 0 23 -30 56 -45 51 -8 -4 -12 -11 -8 -17 4 -6 1 -7 -6 -3
-7 5 -10 14 -7 22 3 7 -1 20 -9 28 -8 8 -15 30 -16 48 0 30 -1 31 -9 11 -13
-31 -24 -29 -16 2 4 14 2 25 -4 25 -5 0 -9 19 -9 43 1 27 3 33 6 17 7 -40 18
-43 17 -5 -1 19 3 35 8 35 6 0 8 -11 4 -24z m334 14 c0 -5 -4 -10 -10 -10 -5
0 -10 5 -10 10 0 6 5 10 10 10 6 0 10 -4 10 -10z m-255 -10 c3 -5 2 -10 -4
-10 -5 0 -13 5 -16 10 -3 6 -2 10 4 10 5 0 13 -4 16 -10z m-531 -42 c4 -16 13
-28 21 -28 17 0 20 -17 5 -22 -6 -2 -12 -26 -13 -53 l-2 -50 38 0 c29 -1 37 3
37 18 0 11 7 18 18 16 9 -1 26 -1 37 0 16 2 14 4 -10 15 -16 7 -37 11 -46 9
-9 -3 -19 3 -23 14 -6 14 -5 16 5 6 17 -17 30 -16 23 0 -3 10 4 14 26 14 16 0
28 -2 26 -5 -3 -2 4 -14 15 -25 20 -21 20 -21 -3 -39 -13 -10 -31 -15 -42 -12
-13 4 -17 2 -13 -7 2 -8 9 -13 14 -12 5 1 10 -5 10 -13 0 -11 -7 -14 -26 -9
-14 4 -28 11 -29 16 -2 5 -8 7 -13 3 -17 -10 -9 -55 17 -102 20 -37 21 -41 5
-22 -11 14 -21 29 -21 34 0 5 -7 3 -15 -4 -13 -10 -15 -9 -15 9 0 11 -4 21
-10 21 -5 0 -10 9 -10 21 0 11 -4 18 -9 15 -5 -3 -11 4 -14 15 l-6 21 -21 -20
c-12 -11 -19 -25 -16 -31 4 -7 1 -8 -9 -5 -11 5 -14 2 -9 -10 3 -9 2 -16 -4
-16 -14 0 -23 28 -11 35 5 4 7 11 3 16 -3 5 0 8 7 7 7 -2 13 6 14 17 0 11 12
36 28 56 32 42 34 50 10 43 -16 -5 -16 -4 1 10 30 24 14 40 -17 16 -15 -12
-27 -19 -27 -17 0 19 16 40 36 48 13 4 24 13 24 19 0 6 -4 8 -10 5 -5 -3 -10
-2 -10 4 0 10 24 22 27 12 1 -3 4 -18 7 -33z m613 20 c27 -26 29 -45 6 -52
-24 -7 52 1 97 10 32 6 34 5 21 -10 -7 -9 -23 -16 -35 -16 -12 0 -27 -5 -34
-12 -8 -8 -15 -8 -26 1 -8 7 -24 10 -35 6 -10 -3 -22 -1 -26 5 -3 5 -17 10
-29 10 -15 0 -26 7 -29 19 -3 14 0 17 14 14 14 -4 19 0 19 15 0 17 10 28 29
31 3 1 15 -9 28 -21z m-583 -4 c9 -22 -3 -32 -14 -14 -12 19 -12 30 -1 30 5 0
12 -7 15 -16z m286 -9 c-7 -9 -15 -13 -18 -10 -3 2 1 11 8 20 7 9 15 13 18 10
3 -2 -1 -11 -8 -20z m175 -3 c-3 -3 -11 0 -18 7 -9 10 -8 11 6 5 10 -3 15 -9
12 -12z m285 14 c0 -3 -4 -8 -10 -11 -5 -3 -10 -1 -10 4 0 6 5 11 10 11 6 0
10 -2 10 -4z m-85 -16 c8 -13 -5 -13 -25 0 -13 8 -13 10 2 10 9 0 20 -4 23
-10z m-616 -36 c3 -16 1 -17 -13 -5 -19 16 -21 34 -3 29 6 -3 14 -13 16 -24z
m591 16 c0 -5 -4 -10 -10 -10 -5 0 -10 5 -10 10 0 6 5 10 10 10 6 0 10 -4 10
-10z m117 -7 c-9 -9 -19 -14 -23 -11 -10 10 6 28 24 28 15 0 15 -1 -1 -17z
m111 -6 c3 -16 1 -17 -17 -5 -25 16 -27 31 -4 26 10 -2 19 -11 21 -21z m-148
-23 c0 -4 -11 -17 -25 -30 -14 -13 -25 -28 -25 -33 0 -6 -17 -18 -37 -26 -27
-11 -34 -18 -24 -24 10 -6 9 -10 -4 -15 -23 -9 -38 3 -32 25 4 14 0 19 -14 19
-10 0 -19 -5 -19 -11 0 -5 -4 -7 -10 -4 -20 12 -9 25 23 26 l32 1 -30 8 c-27
7 -25 8 17 9 26 0 58 6 72 13 22 9 24 14 13 26 -10 13 -9 15 10 10 13 -4 26
-2 29 3 6 10 24 12 24 3z m38 -24 c-7 -11 -19 -22 -28 -25 -8 -4 -4 5 9 19 29
31 36 33 19 6z m-203 -11 c5 -6 3 -9 -7 -9 -24 0 -48 11 -48 22 0 10 39 1 55
-13z m60 15 c12 -5 14 -9 4 -14 -14 -9 -39 -2 -39 11 0 11 12 11 35 3z m175
-18 c0 -3 -4 -8 -10 -11 -5 -3 -10 -1 -10 4 0 6 5 11 10 11 6 0 10 -2 10 -4z
m-402 -32 c-7 -15 -14 -21 -16 -15 -2 7 2 18 8 26 18 22 21 18 8 -11z m419 4
c-3 -8 -6 -5 -6 6 -1 11 2 17 5 13 3 -3 4 -12 1 -19z m-381 -34 c-4 -14 -9
-24 -12 -21 -3 2 -2 17 2 31 3 15 9 25 11 22 3 -3 2 -17 -1 -32z m296 13 c-2
-11 2 -15 11 -11 8 3 14 -2 14 -11 0 -8 -5 -15 -11 -15 -6 0 -22 -3 -35 -7
-16 -4 -22 -3 -18 5 4 5 1 13 -5 16 -7 3 -4 4 6 3 10 -1 21 4 24 12 3 10 -2
11 -19 6 -22 -7 -22 -6 -10 9 18 21 47 16 43 -7z m-717 3 c3 -5 1 -10 -4 -10
-6 0 -11 5 -11 10 0 6 2 10 4 10 3 0 8 -4 11 -10z m785 0 c0 -5 -5 -10 -11
-10 -5 0 -7 5 -4 10 3 6 8 10 11 10 2 0 4 -4 4 -10z m-390 -19 c0 -6 -11 -23
-25 -38 -24 -27 -25 -27 -12 -3 24 48 37 62 37 41z m157 -23 c-3 -8 -6 -5 -6
6 -1 11 2 17 5 13 3 -3 4 -12 1 -19z m-211 -14 c-4 -9 -9 -15 -11 -12 -3 3 -3
13 1 22 4 9 9 15 11 12 3 -3 3 -13 -1 -22z m125 -6 c0 -13 2 -31 4 -40 2 -10
-3 -18 -11 -18 -8 0 -14 5 -14 10 0 6 5 10 11 10 5 0 3 10 -5 22 -20 28 -20
38 -1 38 9 0 15 -10 16 -22z m49 -32 c0 -6 -5 -4 -10 4 -9 13 -10 13 -10 0 0
-13 -1 -13 -10 0 -5 8 -10 24 -10 35 1 19 2 19 20 -4 11 -13 20 -28 20 -35z
m-450 24 c12 -8 11 -10 -7 -10 -13 0 -23 5 -23 10 0 13 11 13 30 0z m55 0 c3
-5 2 -10 -4 -10 -5 0 -13 5 -16 10 -3 6 -2 10 4 10 5 0 13 -4 16 -10z m481 1
c-6 -9 38 -20 83 -22 23 0 24 -1 6 -8 -11 -5 -24 -6 -29 -3 -5 3 -6 0 -2 -7 4
-6 11 -9 16 -6 4 3 6 -4 3 -15 -3 -11 -8 -20 -12 -20 -7 0 -39 24 -90 67 l-26
23 28 0 c16 0 26 -4 23 -9z m79 -1 c-3 -5 -11 -10 -16 -10 -6 0 -7 5 -4 10 3
6 11 10 16 10 6 0 7 -4 4 -10z m55 0 c0 -5 -10 -10 -22 -9 -22 0 -22 1 -3 9
11 5 21 9 23 9 1 1 2 -3 2 -9z m-791 -33 c0 -7 -3 -6 -6 2 -4 10 -9 8 -19 -10
-9 -15 -13 -18 -14 -8 0 18 20 40 32 33 4 -3 8 -11 7 -17z m934 -12 c35 -44
27 -46 -13 -4 -16 18 -30 26 -30 19 0 -7 -3 -11 -6 -7 -7 7 4 27 14 27 4 0 20
-16 35 -35z m-482 2 c-10 -9 -11 -8 -5 6 3 10 9 15 12 12 3 -3 0 -11 -7 -18z
m-424 -19 c-3 -7 -5 -2 -5 12 0 14 2 19 5 13 2 -7 2 -19 0 -25z m342 -18 c-13
-16 -29 -30 -36 -30 -17 0 -9 17 26 50 33 32 39 20 10 -20z m311 16 c0 -14
-14 -36 -22 -36 -6 0 -8 7 -4 15 3 8 1 15 -4 15 -5 0 -14 9 -20 21 -11 20 -11
20 19 4 17 -8 31 -17 31 -19z m-85 -8 c-4 7 1 12 14 12 15 0 19 -6 19 -30 -1
-33 -5 -35 -41 -21 -18 7 -24 17 -25 43 l-1 33 20 -25 c12 -14 18 -19 14 -12z
m-597 -3 c-6 -14 -13 -24 -14 -22 -6 6 9 47 17 47 5 0 3 -11 -3 -25z m311 -22
c-22 -52 -49 -87 -49 -64 0 10 -3 11 -14 2 -11 -9 -20 -7 -41 13 -31 29 -22
38 40 38 27 0 43 4 39 9 -6 11 23 49 37 49 5 0 -1 -21 -12 -47z m179 19 c2
-14 11 -22 23 -22 11 0 22 -7 26 -16 3 -8 12 -13 20 -10 8 3 11 2 8 -3 -3 -6
2 -14 11 -19 16 -9 16 -11 -1 -33 -10 -14 -15 -17 -12 -7 7 20 -9 34 -16 16
-4 -10 -8 -9 -16 2 -18 26 -12 2 9 -36 12 -20 19 -39 16 -42 -10 -9 -36 20
-37 42 -4 69 -16 -103 -14 -194 2 -61 0 -108 -4 -106 -4 3 -7 -5 -7 -17 1 -16
-5 -22 -23 -23 -13 -1 -28 -9 -33 -18 -5 -9 -14 -16 -21 -16 -8 0 -8 3 -2 8
11 8 13 17 25 112 16 125 23 160 30 155 9 -5 31 75 24 86 -3 5 -12 5 -21 2
-13 -5 -15 -3 -9 13 5 10 11 27 13 37 3 9 14 17 24 17 16 0 17 3 7 19 -6 10
-18 17 -25 14 -7 -3 -13 1 -13 8 0 8 -6 5 -15 -7 -14 -18 -14 -18 -15 5 0 20
-2 21 -15 11 -26 -22 -16 0 12 26 30 28 47 27 51 -4z m-543 8 c-3 -5 -11 -10
-16 -10 -6 0 -7 5 -4 10 3 6 11 10 16 10 6 0 7 -4 4 -10z m605 -12 c0 -13 -23
-5 -28 10 -2 7 2 10 12 6 9 -3 16 -11 16 -16z m232 0 c-7 -7 -12 -8 -12 -2 0
6 3 14 7 17 3 4 9 5 12 2 2 -3 -1 -11 -7 -17z m130 2 c2 6 11 4 26 -6 12 -8
19 -20 16 -26 -5 -7 -12 -5 -20 7 -8 10 -17 16 -20 12 -9 -9 -34 12 -34 27 0
6 7 3 14 -7 8 -10 16 -13 18 -7z m-851 -12 c1 -13 1 -27 0 -32 -1 -4 4 -16 11
-25 12 -14 11 -14 -4 -3 -9 7 -16 21 -16 30 0 9 -3 25 -7 35 -4 10 -3 17 4 17
6 0 12 -10 12 -22z m-111 -10 c-11 -12 -23 -18 -27 -14 -5 4 1 14 11 22 30 21
39 17 16 -8z m146 -15 c-4 -4 -11 -1 -16 7 -16 25 -11 35 7 17 9 -9 13 -20 9
-24z m618 11 c20 -20 20 -20 -9 -19 -29 2 -39 10 -30 24 9 15 21 14 39 -5z
m-609 -34 c3 -5 1 -10 -4 -10 -6 0 -11 5 -11 10 0 6 2 10 4 10 3 0 8 -4 11
-10z m560 -1 c11 -17 -1 -21 -15 -4 -8 9 -8 15 -2 15 6 0 14 -5 17 -11z m-618
-17 c2 -10 17 -23 32 -30 28 -12 58 -59 46 -71 -4 -3 -13 3 -21 13 -12 17 -14
17 -20 3 -3 -9 -3 -21 1 -27 3 -5 1 -10 -4 -10 -6 0 -11 15 -11 34 0 39 -37
77 -52 53 -5 -8 -8 -7 -8 5 0 42 27 65 37 30z m149 -9 c-8 -8 -36 5 -36 17 0
7 6 7 21 0 11 -7 18 -14 15 -17z m234 -9 c-18 -21 -24 -10 -9 18 8 14 14 18
17 10 2 -7 -2 -19 -8 -28z m280 21 c0 -8 -7 -15 -15 -15 -13 0 -14 3 -3 15 16
18 18 18 18 0z m-719 -18 c-10 -9 -11 -8 -5 6 3 10 9 15 12 12 3 -3 0 -11 -7
-18z m460 -14 c-8 -15 -10 -15 -11 -2 0 17 10 32 18 25 2 -3 -1 -13 -7 -23z
m-304 1 c-3 -3 -12 -4 -19 -1 -8 3 -5 6 6 6 11 1 17 -2 13 -5z m83 2 c0 -3 -4
-8 -10 -11 -5 -3 -10 -1 -10 4 0 6 5 11 10 11 6 0 10 -2 10 -4z m450 -12 c0
-11 -5 -14 -16 -10 -9 3 -18 6 -20 6 -3 0 -2 5 1 10 10 16 35 12 35 -6z m-68
-9 c0 -5 -5 -11 -11 -13 -6 -2 -11 4 -11 13 0 9 5 15 11 13 6 -2 11 -8 11 -13z
m112 -1 c3 -8 2 -12 -4 -9 -6 3 -10 10 -10 16 0 14 7 11 14 -7z m179 -20 c-3
-7 -9 -11 -14 -8 -5 3 -9 -1 -9 -8 0 -9 -3 -9 -10 2 -13 20 -13 33 0 25 6 -3
10 1 10 11 0 13 3 14 14 4 8 -6 12 -18 9 -26z m-903 10 c0 -8 5 -12 10 -9 6 3
10 2 10 -4 0 -5 -4 -13 -10 -16 -5 -3 -10 -1 -10 5 0 6 -4 9 -9 6 -10 -7 -23
19 -14 28 11 11 23 6 23 -10z m59 -27 c0 -18 -5 -41 -10 -52 -8 -17 -9 -16 -5
8 2 21 0 27 -10 23 -17 -6 -18 3 -4 39 13 34 30 23 29 -18z m291 29 c0 -3 -4
-8 -10 -11 -5 -3 -10 -1 -10 4 0 6 5 11 10 11 6 0 10 -2 10 -4z m360 -25 c0
-4 -13 -12 -29 -18 -26 -9 -32 -8 -48 9 -18 20 -18 21 15 16 17 -2 32 -1 32 3
0 5 7 6 15 3 8 -4 15 -9 15 -13z m-290 -1 c0 -5 -5 -10 -11 -10 -5 0 -7 5 -4
10 3 6 8 10 11 10 2 0 4 -4 4 -10z m47 -22 c-3 -8 -6 -5 -6 6 -1 11 2 17 5 13
3 -3 4 -12 1 -19z m143 2 c8 -5 11 -12 7 -16 -4 -4 -15 0 -24 9 -18 18 -8 23
17 7z m-40 -10 c0 -5 -7 -7 -15 -4 -8 4 -15 8 -15 10 0 2 7 4 15 4 8 0 15 -4
15 -10z m160 -4 c0 -3 -4 -8 -10 -11 -5 -3 -10 -1 -10 4 0 6 5 11 10 11 6 0
10 -2 10 -4z m-683 -161 c-7 -76 -10 -92 -25 -107 -8 -8 -9 -5 -5 12 5 19 3
22 -10 17 -13 -5 -16 -1 -12 21 2 15 9 69 16 121 l12 94 15 -49 c9 -30 12 -71
9 -109z m623 134 c0 -16 -4 -19 -22 -13 -29 8 -31 10 -23 23 12 20 45 13 45
-10z m212 -167 c3 -35 2 -50 -5 -43 -5 5 -15 7 -22 5 -26 -10 -35 116 -12 186
l12 41 11 -68 c6 -37 14 -92 16 -121z m-787 137 l-8 -24 -8 24 c-10 27 -2 48
13 33 6 -6 7 -20 3 -33z m515 31 c0 -5 -2 -10 -4 -10 -3 0 -8 5 -11 10 -3 6
-1 10 4 10 6 0 11 -4 11 -10z m114 -19 c3 -5 -3 -11 -14 -14 -13 -3 -20 0 -20
9 0 15 26 19 34 5z m-297 -163 c-3 -8 -6 -5 -6 6 -1 11 2 17 5 13 3 -3 4 -12
1 -19z m-370 -40 c-3 -8 -6 -5 -6 6 -1 11 2 17 5 13 3 -3 4 -12 1 -19z m770 0
c-3 -8 -6 -5 -6 6 -1 11 2 17 5 13 3 -3 4 -12 1 -19z m37 -14 c5 -14 4 -15 -9
-4 -17 14 -19 20 -6 20 5 0 12 -7 15 -16z m-374 -28 c0 -2 -7 -9 -15 -16 -13
-11 -14 -10 -9 4 5 14 24 23 24 12z"/>
<path d="M2521 3574 c0 -11 3 -14 6 -6 3 7 2 16 -1 19 -3 4 -6 -2 -5 -13z"/>
<path d="M2178 3193 c7 -3 16 -2 19 1 4 3 -2 6 -13 5 -11 0 -14 -3 -6 -6z"/>
<path d="M2253 3173 c9 -2 23 -2 30 0 6 3 -1 5 -18 5 -16 0 -22 -2 -12 -5z"/>
<path d="M2067 3353 c-10 -9 -9 -41 2 -47 5 -3 11 8 13 24 4 29 -1 37 -15 23z"/>
<path d="M2656 3442 c-11 -19 18 -31 38 -16 11 8 15 14 9 14 -6 0 -18 3 -26 6
-8 3 -18 1 -21 -4z"/>
<path d="M2283 3098 c-2 -5 5 -8 16 -8 12 0 24 0 28 -1 4 0 9 3 10 8 4 10 -47
11 -54 1z"/>
<path d="M2532 2838 c-15 -48 -22 -108 -13 -108 7 0 32 131 26 138 -2 2 -8
-12 -13 -30z"/>
<path d="M2081 2815 c-1 -11 -4 -31 -7 -45 -5 -22 -4 -23 6 -7 6 10 9 30 7 45
-3 18 -5 20 -6 7z"/>
<path d="M2907 2825 c9 -59 25 -91 18 -36 -3 24 -10 51 -15 60 -6 11 -7 3 -3
-24z"/>
<path d="M2655 4010 c-8 -13 -1 -24 14 -19 6 3 7 10 2 18 -6 10 -10 10 -16 1z"/>
<path d="M2510 3981 c0 -17 4 -32 8 -35 4 -2 6 11 4 30 -5 42 -12 45 -12 5z"/>
<path d="M3005 3924 c17 -17 46 -18 40 -1 -3 6 -16 13 -30 13 -21 2 -22 0 -10
-12z"/>
<path d="M3035 3891 c-3 -5 0 -13 6 -17 7 -4 9 -3 5 4 -3 5 0 13 6 15 9 4 10
6 1 6 -6 1 -14 -3 -18 -8z"/>
<path d="M2872 3767 c-7 -17 -17 -25 -24 -21 -8 5 -9 0 -5 -15 4 -19 2 -21
-16 -16 -18 5 -19 4 -7 -4 13 -9 12 -12 -7 -17 -13 -4 -23 -11 -23 -16 0 -5 3
-8 8 -6 47 23 62 33 62 44 0 7 7 17 16 22 9 5 14 18 12 33 -3 23 -3 23 -16 -4z"/>
<path d="M2888 3739 c-18 -19 -17 -21 12 -23 8 -1 17 -12 21 -26 4 -17 6 -10
5 22 -1 51 -11 58 -38 27z"/>
<path d="M2886 3684 c-22 -21 -20 -33 4 -27 11 3 20 14 20 24 0 23 -4 24 -24
3z"/>
<path d="M2090 3672 c0 -12 49 -37 57 -29 3 4 -1 7 -9 7 -9 0 -18 7 -22 15 -6
16 -26 21 -26 7z"/>
<path d="M1948 3640 c-12 -11 -32 -27 -43 -34 -18 -13 -15 -13 23 -3 23 6 42
17 42 24 0 7 5 13 10 13 6 0 10 5 10 10 0 16 -16 12 -42 -10z"/>
<path d="M2758 3653 c7 -3 16 -2 19 1 4 3 -2 6 -13 5 -11 0 -14 -3 -6 -6z"/>
<path d="M1900 3630 c-8 -5 -10 -10 -5 -10 6 0 17 5 25 10 8 5 11 10 5 10 -5
0 -17 -5 -25 -10z"/>
<path d="M2140 3594 c0 -8 5 -12 10 -9 6 4 8 11 5 16 -9 14 -15 11 -15 -7z"/>
<path d="M2354 3568 l-19 -23 23 19 c21 18 27 26 19 26 -2 0 -12 -10 -23 -22z"/>
<path d="M1540 3570 c-2 -21 -9 -61 -15 -88 -3 -12 -17 -28 -30 -34 -14 -6
-25 -15 -25 -20 0 -5 9 -4 20 2 16 9 19 8 14 -7 -4 -14 -1 -13 14 5 29 32 35
27 13 -10 -10 -18 -16 -39 -13 -47 2 -8 0 -11 -5 -8 -6 4 -8 -4 -5 -19 4 -24
5 -24 23 -8 11 9 19 29 19 43 0 14 4 22 8 16 4 -5 13 -11 20 -13 10 -2 10 2 2
18 -12 23 -7 25 21 9 19 -9 19 -9 10 10 -6 11 -18 24 -27 29 -14 8 -13 11 7
27 24 17 24 17 2 10 -19 -5 -23 -2 -23 14 0 12 -5 21 -11 21 -6 0 -9 6 -6 13
2 6 1 21 -4 32 -5 14 -8 15 -9 5z m0 -214 c0 -3 -4 -8 -10 -11 -5 -3 -10 -1
-10 4 0 6 5 11 10 11 6 0 10 -2 10 -4z"/>
<path d="M2166 3566 c6 -15 34 -30 34 -18 0 4 -9 13 -20 19 -16 11 -18 10 -14
-1z"/>
<path d="M2802 3565 c-10 -12 -10 -15 2 -15 7 0 16 7 20 15 7 19 -5 19 -22 0z"/>
<path d="M3459 3570 c-1 -8 -3 -21 -3 -28 -1 -7 -7 -17 -15 -21 -7 -5 -11 -13
-7 -19 3 -6 2 -14 -4 -17 -8 -5 -8 -11 -1 -19 8 -10 4 -16 -14 -24 -14 -6 -25
-16 -25 -22 0 -13 6 -13 31 1 18 9 19 8 10 -9 -8 -16 -7 -21 6 -26 14 -6 14
-9 -4 -29 -11 -12 -19 -27 -17 -33 3 -5 -8 -15 -23 -21 -26 -10 -26 -11 -5
-12 12 -1 21 -4 20 -8 -2 -5 1 -8 7 -8 5 0 9 5 7 12 -1 6 3 15 9 19 9 5 10 2
6 -9 -3 -9 -2 -19 3 -22 10 -6 23 32 20 56 -4 25 0 39 10 39 6 0 10 -9 10 -20
0 -18 19 -30 21 -12 0 4 2 15 4 25 2 9 -1 14 -7 11 -5 -3 -8 0 -7 7 1 8 -3 27
-9 42 -17 40 -15 43 8 16 l20 -24 -3 23 c-2 12 -9 28 -15 34 -7 7 -12 26 -13
43 -1 35 -16 79 -20 55z m8 -175 c0 -8 -4 -12 -9 -9 -5 3 -6 10 -3 15 9 13 12
11 12 -6z"/>
<path d="M2176 3533 c-10 -10 27 -40 45 -36 11 3 19 8 19 12 0 9 -57 30 -64
24z"/>
<path d="M3515 3440 c3 -5 11 -10 16 -10 6 0 7 5 4 10 -3 6 -11 10 -16 10 -6
0 -7 -4 -4 -10z"/>
<path d="M3378 3383 c7 -3 16 -2 19 1 4 3 -2 6 -13 5 -11 0 -14 -3 -6 -6z"/>
<path d="M1559 3349 c-2 -50 -32 -93 -82 -123 l-32 -18 34 6 c19 3 43 14 53
23 10 9 18 12 18 6 0 -21 -38 -43 -76 -44 -30 -2 -33 -3 -11 -6 25 -4 40 -23
17 -23 -5 0 -7 -7 -4 -15 4 -8 14 -15 24 -15 21 0 21 -27 0 -40 -10 -6 -9 -9
5 -11 17 -4 17 -5 0 -19 -11 -8 -16 -10 -11 -3 5 9 2 11 -10 6 -12 -4 -14 -8
-6 -11 10 -3 10 -7 0 -20 -12 -13 -10 -14 10 -3 15 8 22 8 22 1 0 -6 5 -8 10
-5 6 4 8 10 5 15 -3 5 0 12 6 15 6 4 8 18 5 31 -4 14 -2 24 4 24 6 0 9 4 5 9
-3 5 -1 12 4 15 5 4 11 -6 13 -21 2 -16 9 -28 18 -29 9 0 10 1 3 3 -7 3 -13
14 -13 27 0 12 -5 27 -11 33 -8 8 -2 9 22 4 22 -4 38 -16 46 -31 7 -14 13 -19
13 -12 0 12 -20 53 -31 62 -3 3 -11 14 -18 25 -12 19 -12 19 -8 -2 6 -27 -11
-42 -24 -22 -6 11 -9 10 -15 -4 -6 -18 -34 -24 -34 -8 0 15 46 61 53 54 11
-10 8 6 -4 28 -11 22 -3 63 12 54 5 -4 9 -11 9 -16 0 -6 -4 -7 -10 -4 -5 3
-10 2 -10 -2 0 -5 9 -14 20 -20 23 -15 41 3 19 18 -9 6 -4 7 16 3 29 -6 29 -6
10 9 -11 9 -27 17 -35 17 -10 0 -11 3 -4 8 8 5 5 13 -7 26 -14 15 -19 16 -20
5z"/>
<path d="M1876 3335 c-3 -10 1 -15 13 -15 10 0 18 7 18 15 0 8 -6 15 -13 15
-6 0 -14 -7 -18 -15z"/>
<path d="M3097 3343 c-13 -12 -7 -23 13 -23 13 0 18 5 14 15 -7 16 -17 19 -27
8z"/>
<path d="M1505 3294 c-30 -25 -30 -25 -3 -13 15 6 29 18 32 25 7 18 6 18 -29
-12z"/>
<path d="M3470 3307 c0 -6 -7 -25 -15 -41 -16 -30 -12 -43 17 -64 22 -16 23
-38 3 -46 -8 -3 -12 -12 -9 -21 4 -8 1 -15 -6 -15 -8 0 -11 10 -7 29 4 20 1
33 -9 42 -12 10 -13 9 -8 -5 3 -9 1 -16 -4 -16 -6 0 -9 14 -7 31 3 18 3 30 1
28 -1 -2 -13 -21 -25 -42 l-23 -38 26 7 c29 7 36 -11 14 -35 -11 -11 -10 -13
5 -8 9 4 17 2 17 -2 0 -5 7 -12 16 -15 8 -3 12 -2 9 4 -3 6 1 10 9 10 11 0 14
-9 12 -35 -3 -23 2 -39 12 -47 13 -11 14 -11 8 1 -7 10 -3 11 15 6 21 -7 22
-6 10 9 -7 9 -10 16 -5 16 4 0 -1 7 -12 16 -19 15 -19 16 1 10 20 -6 20 -6 1
9 -14 11 -16 15 -5 15 9 1 8 4 -5 12 -18 10 -17 12 10 24 16 7 23 13 17 13
-21 2 -15 21 6 21 11 0 23 4 26 10 3 5 0 7 -8 4 -23 -8 -87 23 -87 42 0 15 2
16 18 2 19 -17 52 -30 52 -22 0 9 -54 49 -62 47 -4 -2 -5 4 -2 12 7 18 16 19
32 3 7 -7 12 -10 12 -7 0 3 -11 15 -25 27 -15 13 -25 17 -25 9z"/>
<path d="M3512 3304 c10 -10 20 -16 22 -13 3 3 -5 11 -17 18 -21 13 -21 12 -5
-5z"/>
<path d="M3379 3203 c-13 -16 -12 -17 4 -4 16 13 21 21 13 21 -2 0 -10 -8 -17
-17z"/>
<path d="M1846 3159 c4 -7 44 0 44 7 0 2 -11 3 -24 2 -14 -1 -23 -5 -20 -9z"/>
<path d="M3120 3165 c0 -7 30 -13 34 -7 3 4 -4 9 -15 9 -10 1 -19 0 -19 -2z"/>
<path d="M1440 3090 c-9 -6 -10 -10 -3 -10 6 0 15 5 18 10 8 12 4 12 -15 0z"/>
<path d="M1664 3085 c-10 -8 -14 -15 -8 -15 6 0 17 7 24 15 16 19 9 19 -16 0z"/>
<path d="M3093 3093 c9 -2 23 -2 30 0 6 3 -1 5 -18 5 -16 0 -22 -2 -12 -5z"/>
<path d="M3340 3091 c-22 -6 -23 -8 -7 -14 27 -10 34 -9 34 8 0 8 -1 15 -1 14
-1 -1 -12 -4 -26 -8z"/>
<path d="M3420 3090 c0 -5 5 -10 11 -10 5 0 7 5 4 10 -3 6 -8 10 -11 10 -2 0
-4 -4 -4 -10z"/>
<path d="M1888 3083 c7 -3 16 -2 19 1 4 3 -2 6 -13 5 -11 0 -14 -3 -6 -6z"/>
<path d="M3110 3070 c-8 -5 -25 -7 -37 -3 -13 3 -23 1 -23 -4 0 -6 14 -10 31
-11 18 0 37 -6 43 -13 8 -9 8 -10 -1 -5 -7 4 -13 2 -13 -3 0 -6 4 -11 9 -11
16 0 23 20 12 34 -6 7 -8 16 -4 19 9 10 0 8 -17 -3z"/>
<path d="M1612 3054 c10 -10 20 -16 22 -13 3 3 -5 11 -17 18 -21 13 -21 12 -5
-5z"/>
<path d="M1874 3061 c3 -4 -16 -19 -41 -32 l-47 -24 34 -3 c19 -2 40 -8 46
-13 7 -6 16 -3 25 8 10 11 10 14 1 9 -15 -9 -54 2 -47 14 3 4 15 6 28 3 18 -4
19 -3 7 6 -13 9 -13 11 1 11 9 0 16 7 16 15 0 8 -7 15 -14 15 -8 0 -12 -4 -9
-9z"/>
<path d="M1914 3058 c-3 -4 4 -8 15 -8 12 0 21 4 21 8 0 5 -7 9 -15 9 -9 0
-18 -4 -21 -9z"/>
<path d="M2348 3043 c-20 -16 -41 -36 -48 -47 -10 -16 -6 -15 31 5 23 13 46
34 50 47 10 28 10 28 -33 -5z"/>
<path d="M3165 3060 c-8 -13 5 -13 25 0 13 8 13 10 -2 10 -9 0 -20 -4 -23 -10z"/>
<path d="M3376 3054 c-11 -8 -16 -14 -10 -14 13 0 39 18 34 24 -3 2 -14 -2
-24 -10z"/>
<path d="M1580 3040 c0 -6 -5 -8 -11 -4 -8 4 -9 -1 -4 -16 5 -15 4 -20 -4 -16
-7 4 -11 -1 -11 -12 0 -27 -25 -45 -55 -40 -17 4 -25 1 -25 -9 0 -9 7 -12 25
-7 59 15 60 14 57 -48 -3 -50 -1 -58 13 -58 15 0 17 8 13 50 -3 28 -1 53 3 56
5 3 9 13 8 22 0 11 -3 12 -6 5 -7 -18 -23 -16 -23 1 0 26 21 29 41 7 11 -12
26 -21 34 -21 7 0 19 -2 27 -5 7 -3 22 2 33 10 19 15 18 16 -21 12 -23 -3 -48
-1 -55 4 -12 7 -11 9 1 9 9 0 5 6 -9 13 -29 14 -39 37 -17 37 9 0 16 -4 16 -9
0 -5 11 -11 25 -13 35 -7 31 -2 -15 22 -23 12 -40 16 -40 10z"/>
<path d="M3419 3022 c-13 -15 -24 -31 -24 -37 0 -5 -22 -10 -48 -9 -49 1 -63
-10 -24 -20 46 -11 89 12 116 63 18 33 8 35 -20 3z"/>
<path d="M1470 3010 c-18 -16 -25 -17 -32 -8 -5 9 -8 8 -8 -5 0 -26 38 -18 58
11 18 27 12 28 -18 2z"/>
<path d="M3160 3021 c0 -5 -9 -13 -20 -16 -11 -3 -20 -11 -20 -18 0 -8 3 -8
12 1 7 7 28 12 48 12 33 1 34 2 16 15 -23 17 -36 19 -36 6z"/>
<path d="M3361 3019 c-13 -5 -22 -11 -20 -13 7 -7 59 6 59 15 0 11 -8 11 -39
-2z"/>
<path d="M1924 3006 c-10 -8 -16 -17 -13 -20 3 -3 14 3 24 14 21 23 17 26 -11
6z"/>
<path d="M3060 3013 c0 -5 5 -14 12 -21 9 -9 9 -12 -1 -12 -8 0 -20 8 -27 18
-7 9 -13 13 -14 7 0 -16 13 -31 36 -43 19 -10 22 -9 22 13 0 14 -7 30 -14 36
-8 6 -14 7 -14 2z"/>
<path d="M3448 3014 c-5 -4 -8 -19 -8 -33 0 -18 -3 -22 -9 -12 -5 8 -8 -15 -7
-58 1 -47 5 -72 14 -76 18 -7 25 19 20 70 -3 24 -3 46 -1 49 2 2 18 0 34 -4
20 -6 38 -4 57 6 l27 14 -27 -2 c-16 -1 -28 -6 -28 -11 0 -4 -6 -5 -12 0 -7 4
-20 8 -28 8 -8 0 -17 12 -20 28 -3 16 -8 25 -12 21z"/>
<path d="M3472 3000 c0 -14 2 -19 5 -12 2 6 2 18 0 25 -3 6 -5 1 -5 -13z"/>
<path d="M3520 3011 c0 -14 38 -33 50 -26 6 4 7 11 4 17 -4 7 -9 6 -14 -2 -5
-8 -12 -7 -24 5 -9 9 -16 12 -16 6z"/>
<path d="M1929 2974 l-24 -27 33 17 c17 9 32 21 32 26 0 17 -16 11 -41 -16z"/>
<path d="M1405 2970 c-3 -5 -1 -10 4 -10 6 0 11 5 11 10 0 6 -2 10 -4 10 -3 0
-8 -4 -11 -10z"/>
<path d="M3001 2956 c16 -17 81 -55 70 -42 -11 13 -11 16 0 16 8 1 -4 7 -26
15 -43 16 -51 18 -44 11z"/>
<path d="M1510 2008 c0 -4 -16 -43 -35 -87 -19 -45 -29 -81 -24 -81 6 0 13 9
16 20 4 16 14 20 44 20 28 0 41 -5 49 -20 6 -11 15 -20 19 -20 5 0 -6 37 -26
82 -32 78 -43 99 -43 86z m30 -95 c0 -7 -11 -13 -25 -13 -28 0 -30 8 -13 45
l12 26 13 -23 c7 -13 12 -29 13 -35z"/>
<path d="M1660 1925 c0 -95 17 -117 22 -27 l3 57 39 -57 c21 -32 40 -58 42
-58 2 0 3 39 2 88 l-1 87 -6 -65 -6 -65 -44 63 c-24 34 -45 62 -47 62 -2 0 -4
-38 -4 -85z"/>
<path d="M1870 1925 l0 -85 34 0 c102 0 126 132 28 159 -63 18 -62 19 -62 -74z
m84 44 c15 -12 26 -30 26 -45 0 -31 -33 -64 -65 -64 -24 0 -25 2 -25 65 0 57
2 65 19 65 10 0 30 -9 45 -21z"/>
<path d="M2088 2004 c-12 -11 -10 -164 2 -164 6 0 10 16 10 35 0 44 11 44 41
0 13 -19 30 -35 37 -35 8 0 5 10 -9 29 l-21 29 21 21 c24 24 26 40 8 64 -13
19 -77 34 -89 21z m73 -30 c18 -21 0 -48 -35 -52 -24 -3 -26 0 -26 32 0 31 3
36 24 36 13 0 29 -7 37 -16z"/>
<path d="M2277 2003 c-4 -3 -7 -42 -7 -85 l0 -78 50 0 c28 0 50 5 50 10 0 6
-18 10 -40 10 -36 0 -40 3 -40 25 0 22 4 25 34 25 19 0 38 5 41 10 4 6 -10 10
-34 10 -39 0 -41 2 -41 30 0 28 2 30 41 30 24 0 38 4 34 10 -7 11 -78 14 -88
3z"/>
<path d="M2450 1998 c0 -7 9 -49 18 -93 l18 -80 25 68 c13 37 26 67 29 67 3 0
16 -30 29 -67 l25 -68 18 80 c20 92 22 108 9 100 -6 -3 -13 -26 -17 -50 -3
-25 -10 -47 -14 -50 -5 -3 -16 17 -25 45 -9 27 -20 50 -25 50 -5 0 -16 -23
-25 -50 -9 -28 -20 -48 -25 -45 -4 3 -11 25 -14 50 -7 40 -26 75 -26 43z"/>
<path d="M2838 2004 c-12 -11 -10 -164 2 -164 6 0 10 16 10 35 0 44 11 44 41
0 13 -19 30 -35 37 -35 8 0 5 10 -9 29 l-21 29 21 21 c24 24 26 40 8 64 -13
19 -77 34 -89 21z m73 -30 c18 -21 0 -48 -35 -52 -24 -3 -26 0 -26 32 0 31 3
36 24 36 13 0 29 -7 37 -16z"/>
<path d="M3010 2005 c0 -3 14 -24 30 -47 21 -29 30 -53 30 -80 0 -21 5 -38 10
-38 6 0 10 19 10 42 0 29 8 51 26 75 14 18 24 39 21 46 -2 6 -15 -5 -28 -25
-13 -21 -27 -38 -31 -38 -3 0 -16 16 -28 35 -19 30 -40 46 -40 30z"/>
<path d="M3265 1974 c-42 -98 -54 -134 -46 -134 6 0 13 9 16 20 5 16 15 20 47
20 31 0 41 -4 45 -20 5 -17 23 -29 23 -15 0 6 -61 159 -65 164 -2 2 -11 -14
-20 -35z m41 -71 c-2 -3 -15 -3 -28 -1 -24 3 -24 4 -10 38 l14 35 14 -34 c8
-19 12 -36 10 -38z"/>
<path d="M3430 1925 c0 -95 17 -117 22 -27 l3 57 39 -57 c21 -32 40 -58 42
-58 2 0 3 39 2 88 l-1 87 -6 -65 -6 -65 -44 63 c-24 34 -45 62 -47 62 -2 0 -4
-38 -4 -85z"/>
<path d="M2286 1651 c-3 -4 6 -6 19 -3 32 6 32 -5 -2 -40 l-27 -28 35 1 c19 1
26 3 17 6 -16 4 -16 6 -2 28 9 13 13 29 9 35 -7 12 -42 13 -49 1z"/>
<path d="M2414 1646 c-11 -28 0 -61 21 -61 16 0 20 7 20 35 0 25 -5 36 -18 38
-9 2 -20 -3 -23 -12z m36 -26 c0 -20 -5 -30 -15 -30 -10 0 -15 10 -15 30 0 20
5 30 15 30 10 0 15 -10 15 -30z"/>
<path d="M2536 1651 c-3 -4 6 -6 19 -3 32 6 32 -5 -2 -40 l-27 -28 35 1 c19 1
26 3 17 6 -16 4 -16 6 -2 28 9 13 13 29 9 35 -7 12 -42 13 -49 1z"/>
<path d="M2666 1651 c-3 -4 6 -6 19 -3 32 6 32 -5 -2 -40 l-27 -28 35 1 c19 1
26 3 17 6 -16 4 -16 6 -2 28 9 13 13 29 9 35 -7 12 -42 13 -49 1z"/>
</g>
</svg>
